<svg id="Layer_2" height="512" viewBox="0 0 32 32" width="512" xmlns="http://www.w3.org/2000/svg" xmlns:xlink="http://www.w3.org/1999/xlink"><linearGradient id="GRADIENT" gradientUnits="userSpaceOnUse" x1="8.501" x2="23.499" y1="28.988" y2="3.012"><stop offset="0" stop-color="#3cacb6"/><stop offset="1" stop-color="#8ccead"/></linearGradient><path d="m16 1c-8.271 0-15 6.729-15 15s6.729 15 15 15 15-6.729 15-15-6.729-15-15-15zm0 28c-7.168 0-13-5.832-13-13s5.832-13 13-13 13 5.832 13 13-5.832 13-13 13zm-3.293-13.707c.391.391.391 1.023 0 1.414l-4 4c-.195.195-.451.293-.707.293s-.512-.098-.707-.293c-.391-.391-.391-1.023 0-1.414l3.293-3.293-3.293-3.293c-.391-.391-.391-1.023 0-1.414s1.023-.391 1.414 0zm12.293 4.707c0 .552-.447 1-1 1h-9c-.553 0-1-.448-1-1s.447-1 1-1h9c.553 0 1 .448 1 1z" fill="url(#GRADIENT)"/></svg>